<mxfile>
    <diagram id="jyW8JxsWtq4WicKM2LIg" name="modeloRelacional">
        <mxGraphModel dx="1747" dy="912" grid="1" gridSize="10" guides="1" tooltips="1" connect="1" arrows="1" fold="1" page="1" pageScale="1" pageWidth="827" pageHeight="1169" math="0" shadow="0">
            <root>
                <mxCell id="0"/>
                <mxCell id="1" parent="0"/>
                <mxCell id="qd1KYu5MEd3o7Prh5PEI-12" value="" style="edgeStyle=none;rounded=0;orthogonalLoop=1;jettySize=auto;html=1;endArrow=none;endFill=0;" edge="1" parent="1" source="2" target="qd1KYu5MEd3o7Prh5PEI-11">
                    <mxGeometry relative="1" as="geometry"/>
                </mxCell>
                <mxCell id="qd1KYu5MEd3o7Prh5PEI-14" value="" style="edgeStyle=none;rounded=0;orthogonalLoop=1;jettySize=auto;html=1;endArrow=none;endFill=0;entryX=0.5;entryY=1;entryDx=0;entryDy=0;" edge="1" parent="1" source="2" target="qd1KYu5MEd3o7Prh5PEI-13">
                    <mxGeometry relative="1" as="geometry"/>
                </mxCell>
                <mxCell id="qd1KYu5MEd3o7Prh5PEI-19" value="" style="edgeStyle=none;rounded=0;orthogonalLoop=1;jettySize=auto;html=1;endArrow=none;endFill=0;" edge="1" parent="1" source="2" target="qd1KYu5MEd3o7Prh5PEI-11">
                    <mxGeometry relative="1" as="geometry"/>
                </mxCell>
                <mxCell id="qd1KYu5MEd3o7Prh5PEI-27" style="edgeStyle=none;rounded=0;orthogonalLoop=1;jettySize=auto;html=1;endArrow=none;endFill=0;" edge="1" parent="1" source="2" target="qd1KYu5MEd3o7Prh5PEI-20">
                    <mxGeometry relative="1" as="geometry"/>
                </mxCell>
                <mxCell id="qd1KYu5MEd3o7Prh5PEI-28" style="edgeStyle=none;rounded=0;orthogonalLoop=1;jettySize=auto;html=1;endArrow=none;endFill=0;" edge="1" parent="1" source="2" target="qd1KYu5MEd3o7Prh5PEI-22">
                    <mxGeometry relative="1" as="geometry"/>
                </mxCell>
                <mxCell id="qd1KYu5MEd3o7Prh5PEI-29" style="edgeStyle=none;rounded=0;orthogonalLoop=1;jettySize=auto;html=1;endArrow=none;endFill=0;" edge="1" parent="1" source="2" target="qd1KYu5MEd3o7Prh5PEI-23">
                    <mxGeometry relative="1" as="geometry"/>
                </mxCell>
                <mxCell id="qd1KYu5MEd3o7Prh5PEI-32" style="edgeStyle=none;rounded=0;orthogonalLoop=1;jettySize=auto;html=1;endArrow=none;endFill=0;" edge="1" parent="1" source="2" target="qd1KYu5MEd3o7Prh5PEI-25">
                    <mxGeometry relative="1" as="geometry"/>
                </mxCell>
                <mxCell id="qd1KYu5MEd3o7Prh5PEI-33" style="edgeStyle=none;rounded=0;orthogonalLoop=1;jettySize=auto;html=1;endArrow=none;endFill=0;" edge="1" parent="1" source="2" target="qd1KYu5MEd3o7Prh5PEI-26">
                    <mxGeometry relative="1" as="geometry"/>
                </mxCell>
                <mxCell id="qd1KYu5MEd3o7Prh5PEI-34" style="edgeStyle=none;rounded=0;orthogonalLoop=1;jettySize=auto;html=1;endArrow=none;endFill=0;" edge="1" parent="1" source="2" target="qd1KYu5MEd3o7Prh5PEI-21">
                    <mxGeometry relative="1" as="geometry"/>
                </mxCell>
                <mxCell id="qd1KYu5MEd3o7Prh5PEI-100" value="" style="edgeStyle=none;rounded=0;orthogonalLoop=1;jettySize=auto;html=1;endArrow=none;endFill=0;" edge="1" parent="1" source="2" target="qd1KYu5MEd3o7Prh5PEI-99">
                    <mxGeometry relative="1" as="geometry"/>
                </mxCell>
                <mxCell id="2" value="Usuario" style="rounded=1;whiteSpace=wrap;html=1;" parent="1" vertex="1">
                    <mxGeometry x="310" y="480" width="120" height="60" as="geometry"/>
                </mxCell>
                <mxCell id="qd1KYu5MEd3o7Prh5PEI-6" style="rounded=0;orthogonalLoop=1;jettySize=auto;html=1;endArrow=none;endFill=0;" edge="1" parent="1" source="qd1KYu5MEd3o7Prh5PEI-2" target="qd1KYu5MEd3o7Prh5PEI-3">
                    <mxGeometry relative="1" as="geometry"/>
                </mxCell>
                <mxCell id="qd1KYu5MEd3o7Prh5PEI-7" style="rounded=0;orthogonalLoop=1;jettySize=auto;html=1;endArrow=none;endFill=0;" edge="1" parent="1" source="qd1KYu5MEd3o7Prh5PEI-2" target="qd1KYu5MEd3o7Prh5PEI-5">
                    <mxGeometry relative="1" as="geometry"/>
                </mxCell>
                <mxCell id="qd1KYu5MEd3o7Prh5PEI-8" style="edgeStyle=none;rounded=0;orthogonalLoop=1;jettySize=auto;html=1;endArrow=none;endFill=0;" edge="1" parent="1" source="qd1KYu5MEd3o7Prh5PEI-2" target="qd1KYu5MEd3o7Prh5PEI-4">
                    <mxGeometry relative="1" as="geometry"/>
                </mxCell>
                <mxCell id="qd1KYu5MEd3o7Prh5PEI-15" style="edgeStyle=none;rounded=0;orthogonalLoop=1;jettySize=auto;html=1;entryX=0.5;entryY=0;entryDx=0;entryDy=0;endArrow=none;endFill=0;" edge="1" parent="1" source="qd1KYu5MEd3o7Prh5PEI-2" target="qd1KYu5MEd3o7Prh5PEI-13">
                    <mxGeometry relative="1" as="geometry"/>
                </mxCell>
                <mxCell id="qd1KYu5MEd3o7Prh5PEI-2" value="Rol" style="rounded=1;whiteSpace=wrap;html=1;" vertex="1" parent="1">
                    <mxGeometry x="140" y="320" width="120" height="60" as="geometry"/>
                </mxCell>
                <mxCell id="qd1KYu5MEd3o7Prh5PEI-3" value="&lt;u&gt;id_rol&lt;/u&gt;" style="ellipse;whiteSpace=wrap;html=1;" vertex="1" parent="1">
                    <mxGeometry x="80" y="190" width="90" height="30" as="geometry"/>
                </mxCell>
                <mxCell id="qd1KYu5MEd3o7Prh5PEI-4" value="nombre_rol" style="ellipse;whiteSpace=wrap;html=1;" vertex="1" parent="1">
                    <mxGeometry x="130" y="150" width="130" height="30" as="geometry"/>
                </mxCell>
                <mxCell id="qd1KYu5MEd3o7Prh5PEI-5" value="descripcion_rol" style="ellipse;whiteSpace=wrap;html=1;" vertex="1" parent="1">
                    <mxGeometry x="210" y="190" width="130" height="30" as="geometry"/>
                </mxCell>
                <mxCell id="qd1KYu5MEd3o7Prh5PEI-11" value="nombre_usuario" style="ellipse;whiteSpace=wrap;html=1;rounded=1;" vertex="1" parent="1">
                    <mxGeometry x="40" y="590" width="120" height="40" as="geometry"/>
                </mxCell>
                <mxCell id="qd1KYu5MEd3o7Prh5PEI-13" value="R-U" style="rhombus;whiteSpace=wrap;html=1;rounded=1;arcSize=0;" vertex="1" parent="1">
                    <mxGeometry x="185" y="410" width="45" height="40" as="geometry"/>
                </mxCell>
                <mxCell id="qd1KYu5MEd3o7Prh5PEI-20" value="&lt;u&gt;cedula_usuario&lt;/u&gt;" style="ellipse;whiteSpace=wrap;html=1;rounded=1;" vertex="1" parent="1">
                    <mxGeometry x="60" y="540" width="90" height="40" as="geometry"/>
                </mxCell>
                <mxCell id="qd1KYu5MEd3o7Prh5PEI-21" value="correo_usuario" style="ellipse;whiteSpace=wrap;html=1;rounded=1;" vertex="1" parent="1">
                    <mxGeometry x="40" y="635" width="120" height="40" as="geometry"/>
                </mxCell>
                <mxCell id="qd1KYu5MEd3o7Prh5PEI-22" value="cargo_usuario" style="ellipse;whiteSpace=wrap;html=1;rounded=1;" vertex="1" parent="1">
                    <mxGeometry x="150" y="730" width="120" height="40" as="geometry"/>
                </mxCell>
                <mxCell id="qd1KYu5MEd3o7Prh5PEI-23" value="telefono_usuario" style="ellipse;whiteSpace=wrap;html=1;rounded=1;" vertex="1" parent="1">
                    <mxGeometry x="270" y="740" width="120" height="40" as="geometry"/>
                </mxCell>
                <mxCell id="qd1KYu5MEd3o7Prh5PEI-25" value="estado_usuario" style="ellipse;whiteSpace=wrap;html=1;rounded=1;" vertex="1" parent="1">
                    <mxGeometry x="400" y="720" width="120" height="40" as="geometry"/>
                </mxCell>
                <mxCell id="qd1KYu5MEd3o7Prh5PEI-26" value="contaseÃ±a_usuario" style="ellipse;whiteSpace=wrap;html=1;rounded=1;" vertex="1" parent="1">
                    <mxGeometry x="120" y="675" width="120" height="40" as="geometry"/>
                </mxCell>
                <mxCell id="qd1KYu5MEd3o7Prh5PEI-37" value="" style="edgeStyle=none;rounded=0;orthogonalLoop=1;jettySize=auto;html=1;endArrow=none;endFill=0;" edge="1" parent="1" source="qd1KYu5MEd3o7Prh5PEI-35" target="qd1KYu5MEd3o7Prh5PEI-36">
                    <mxGeometry relative="1" as="geometry"/>
                </mxCell>
                <mxCell id="qd1KYu5MEd3o7Prh5PEI-41" style="edgeStyle=none;rounded=0;orthogonalLoop=1;jettySize=auto;html=1;endArrow=none;endFill=0;" edge="1" parent="1" source="qd1KYu5MEd3o7Prh5PEI-35" target="qd1KYu5MEd3o7Prh5PEI-39">
                    <mxGeometry relative="1" as="geometry"/>
                </mxCell>
                <mxCell id="qd1KYu5MEd3o7Prh5PEI-42" style="edgeStyle=none;rounded=0;orthogonalLoop=1;jettySize=auto;html=1;endArrow=none;endFill=0;" edge="1" parent="1" source="qd1KYu5MEd3o7Prh5PEI-35" target="qd1KYu5MEd3o7Prh5PEI-40">
                    <mxGeometry relative="1" as="geometry"/>
                </mxCell>
                <mxCell id="qd1KYu5MEd3o7Prh5PEI-35" value="cultivo" style="rounded=1;whiteSpace=wrap;html=1;" vertex="1" parent="1">
                    <mxGeometry x="720" y="220" width="120" height="60" as="geometry"/>
                </mxCell>
                <mxCell id="qd1KYu5MEd3o7Prh5PEI-36" value="&lt;u&gt;id_cultivo&lt;/u&gt;" style="ellipse;whiteSpace=wrap;html=1;rounded=1;" vertex="1" parent="1">
                    <mxGeometry x="540" y="150" width="120" height="30" as="geometry"/>
                </mxCell>
                <mxCell id="qd1KYu5MEd3o7Prh5PEI-39" value="nombre_cultivo" style="ellipse;whiteSpace=wrap;html=1;rounded=1;" vertex="1" parent="1">
                    <mxGeometry x="707" y="60" width="120" height="40" as="geometry"/>
                </mxCell>
                <mxCell id="qd1KYu5MEd3o7Prh5PEI-40" value="densidad_siembra_cultivo" style="ellipse;whiteSpace=wrap;html=1;rounded=1;" vertex="1" parent="1">
                    <mxGeometry x="827" y="110" width="150" height="40" as="geometry"/>
                </mxCell>
                <mxCell id="qd1KYu5MEd3o7Prh5PEI-45" value="" style="edgeStyle=none;rounded=0;orthogonalLoop=1;jettySize=auto;html=1;endArrow=none;endFill=0;" edge="1" parent="1" source="qd1KYu5MEd3o7Prh5PEI-43" target="qd1KYu5MEd3o7Prh5PEI-44">
                    <mxGeometry relative="1" as="geometry"/>
                </mxCell>
                <mxCell id="qd1KYu5MEd3o7Prh5PEI-47" style="edgeStyle=none;rounded=0;orthogonalLoop=1;jettySize=auto;html=1;endArrow=none;endFill=0;" edge="1" parent="1" source="qd1KYu5MEd3o7Prh5PEI-43" target="qd1KYu5MEd3o7Prh5PEI-46">
                    <mxGeometry relative="1" as="geometry"/>
                </mxCell>
                <mxCell id="qd1KYu5MEd3o7Prh5PEI-58" value="" style="edgeStyle=none;rounded=0;orthogonalLoop=1;jettySize=auto;html=1;endArrow=none;endFill=0;entryX=0.5;entryY=0;entryDx=0;entryDy=0;" edge="1" parent="1" source="qd1KYu5MEd3o7Prh5PEI-43" target="qd1KYu5MEd3o7Prh5PEI-57">
                    <mxGeometry relative="1" as="geometry"/>
                </mxCell>
                <mxCell id="qd1KYu5MEd3o7Prh5PEI-63" style="edgeStyle=none;rounded=0;orthogonalLoop=1;jettySize=auto;html=1;endArrow=none;endFill=0;" edge="1" parent="1" source="qd1KYu5MEd3o7Prh5PEI-43" target="qd1KYu5MEd3o7Prh5PEI-60">
                    <mxGeometry relative="1" as="geometry"/>
                </mxCell>
                <mxCell id="qd1KYu5MEd3o7Prh5PEI-64" style="edgeStyle=none;rounded=0;orthogonalLoop=1;jettySize=auto;html=1;endArrow=none;endFill=0;" edge="1" parent="1" source="qd1KYu5MEd3o7Prh5PEI-43" target="qd1KYu5MEd3o7Prh5PEI-61">
                    <mxGeometry relative="1" as="geometry"/>
                </mxCell>
                <mxCell id="qd1KYu5MEd3o7Prh5PEI-65" style="edgeStyle=none;rounded=0;orthogonalLoop=1;jettySize=auto;html=1;endArrow=none;endFill=0;" edge="1" parent="1" source="qd1KYu5MEd3o7Prh5PEI-43" target="qd1KYu5MEd3o7Prh5PEI-62">
                    <mxGeometry relative="1" as="geometry"/>
                </mxCell>
                <mxCell id="qd1KYu5MEd3o7Prh5PEI-69" value="" style="edgeStyle=none;rounded=0;orthogonalLoop=1;jettySize=auto;html=1;endArrow=none;endFill=0;entryX=0.5;entryY=1;entryDx=0;entryDy=0;" edge="1" parent="1" source="qd1KYu5MEd3o7Prh5PEI-43" target="qd1KYu5MEd3o7Prh5PEI-68">
                    <mxGeometry relative="1" as="geometry"/>
                </mxCell>
                <mxCell id="qd1KYu5MEd3o7Prh5PEI-77" style="edgeStyle=none;rounded=0;orthogonalLoop=1;jettySize=auto;html=1;endArrow=none;endFill=0;" edge="1" parent="1" source="qd1KYu5MEd3o7Prh5PEI-43" target="qd1KYu5MEd3o7Prh5PEI-76">
                    <mxGeometry relative="1" as="geometry"/>
                </mxCell>
                <mxCell id="qd1KYu5MEd3o7Prh5PEI-95" value="" style="edgeStyle=none;rounded=0;orthogonalLoop=1;jettySize=auto;html=1;endArrow=none;endFill=0;entryX=0;entryY=0.5;entryDx=0;entryDy=0;" edge="1" parent="1" source="qd1KYu5MEd3o7Prh5PEI-43" target="qd1KYu5MEd3o7Prh5PEI-94">
                    <mxGeometry relative="1" as="geometry"/>
                </mxCell>
                <mxCell id="qd1KYu5MEd3o7Prh5PEI-101" style="edgeStyle=none;rounded=0;orthogonalLoop=1;jettySize=auto;html=1;endArrow=none;endFill=0;entryX=1;entryY=0.5;entryDx=0;entryDy=0;" edge="1" parent="1" source="qd1KYu5MEd3o7Prh5PEI-43" target="qd1KYu5MEd3o7Prh5PEI-99">
                    <mxGeometry relative="1" as="geometry">
                        <mxPoint x="560" y="500" as="targetPoint"/>
                    </mxGeometry>
                </mxCell>
                <mxCell id="qd1KYu5MEd3o7Prh5PEI-105" style="edgeStyle=none;rounded=0;orthogonalLoop=1;jettySize=auto;html=1;endArrow=none;endFill=0;" edge="1" parent="1" source="qd1KYu5MEd3o7Prh5PEI-43" target="qd1KYu5MEd3o7Prh5PEI-104">
                    <mxGeometry relative="1" as="geometry"/>
                </mxCell>
                <mxCell id="qd1KYu5MEd3o7Prh5PEI-43" value="Finca" style="rounded=1;whiteSpace=wrap;html=1;" vertex="1" parent="1">
                    <mxGeometry x="850" y="480" width="120" height="60" as="geometry"/>
                </mxCell>
                <mxCell id="qd1KYu5MEd3o7Prh5PEI-44" value="&lt;u&gt;id_finca&lt;/u&gt;" style="ellipse;whiteSpace=wrap;html=1;rounded=1;" vertex="1" parent="1">
                    <mxGeometry x="932.5" y="280" width="100" height="40" as="geometry"/>
                </mxCell>
                <mxCell id="qd1KYu5MEd3o7Prh5PEI-46" value="nombre_finca" style="ellipse;whiteSpace=wrap;html=1;rounded=1;" vertex="1" parent="1">
                    <mxGeometry x="1021.25" y="240" width="130" height="40" as="geometry"/>
                </mxCell>
                <mxCell id="qd1KYu5MEd3o7Prh5PEI-50" value="" style="edgeStyle=none;rounded=0;orthogonalLoop=1;jettySize=auto;html=1;endArrow=none;endFill=0;" edge="1" parent="1" source="qd1KYu5MEd3o7Prh5PEI-48" target="qd1KYu5MEd3o7Prh5PEI-49">
                    <mxGeometry relative="1" as="geometry"/>
                </mxCell>
                <mxCell id="qd1KYu5MEd3o7Prh5PEI-54" style="edgeStyle=none;rounded=0;orthogonalLoop=1;jettySize=auto;html=1;endArrow=none;endFill=0;" edge="1" parent="1" source="qd1KYu5MEd3o7Prh5PEI-48" target="qd1KYu5MEd3o7Prh5PEI-53">
                    <mxGeometry relative="1" as="geometry"/>
                </mxCell>
                <mxCell id="qd1KYu5MEd3o7Prh5PEI-56" style="edgeStyle=none;rounded=0;orthogonalLoop=1;jettySize=auto;html=1;endArrow=none;endFill=0;" edge="1" parent="1" source="qd1KYu5MEd3o7Prh5PEI-48" target="qd1KYu5MEd3o7Prh5PEI-52">
                    <mxGeometry relative="1" as="geometry"/>
                </mxCell>
                <mxCell id="qd1KYu5MEd3o7Prh5PEI-59" style="edgeStyle=none;rounded=0;orthogonalLoop=1;jettySize=auto;html=1;entryX=0.5;entryY=1;entryDx=0;entryDy=0;endArrow=none;endFill=0;" edge="1" parent="1" source="qd1KYu5MEd3o7Prh5PEI-48" target="qd1KYu5MEd3o7Prh5PEI-57">
                    <mxGeometry relative="1" as="geometry"/>
                </mxCell>
                <mxCell id="qd1KYu5MEd3o7Prh5PEI-81" style="edgeStyle=none;rounded=0;orthogonalLoop=1;jettySize=auto;html=1;endArrow=none;endFill=0;" edge="1" parent="1" source="qd1KYu5MEd3o7Prh5PEI-48" target="qd1KYu5MEd3o7Prh5PEI-80">
                    <mxGeometry relative="1" as="geometry"/>
                </mxCell>
                <mxCell id="qd1KYu5MEd3o7Prh5PEI-48" value="Propietario" style="rounded=1;whiteSpace=wrap;html=1;" vertex="1" parent="1">
                    <mxGeometry x="850" y="670" width="120" height="60" as="geometry"/>
                </mxCell>
                <mxCell id="qd1KYu5MEd3o7Prh5PEI-49" value="&lt;u&gt;ci_propietario&lt;/u&gt;" style="ellipse;whiteSpace=wrap;html=1;rounded=1;" vertex="1" parent="1">
                    <mxGeometry x="740" y="780" width="100" height="40" as="geometry"/>
                </mxCell>
                <mxCell id="qd1KYu5MEd3o7Prh5PEI-52" value="fecha_update_propietario" style="ellipse;whiteSpace=wrap;html=1;rounded=1;" vertex="1" parent="1">
                    <mxGeometry x="990" y="790" width="160" height="40" as="geometry"/>
                </mxCell>
                <mxCell id="qd1KYu5MEd3o7Prh5PEI-53" value="celular_propietario" style="ellipse;whiteSpace=wrap;html=1;rounded=1;" vertex="1" parent="1">
                    <mxGeometry x="860" y="790" width="110" height="40" as="geometry"/>
                </mxCell>
                <mxCell id="qd1KYu5MEd3o7Prh5PEI-57" value="Tiene" style="rhombus;whiteSpace=wrap;html=1;rounded=1;arcSize=0;" vertex="1" parent="1">
                    <mxGeometry x="878.75" y="580" width="62.5" height="60" as="geometry"/>
                </mxCell>
                <mxCell id="qd1KYu5MEd3o7Prh5PEI-60" value="coordenada_x_finca" style="ellipse;whiteSpace=wrap;html=1;rounded=1;" vertex="1" parent="1">
                    <mxGeometry x="1048.75" y="290" width="160" height="40" as="geometry"/>
                </mxCell>
                <mxCell id="qd1KYu5MEd3o7Prh5PEI-61" value="coordenada_y_finca" style="ellipse;whiteSpace=wrap;html=1;rounded=1;" vertex="1" parent="1">
                    <mxGeometry x="1069.75" y="340" width="160" height="40" as="geometry"/>
                </mxCell>
                <mxCell id="qd1KYu5MEd3o7Prh5PEI-62" value="coordenada_z_finca" style="ellipse;whiteSpace=wrap;html=1;rounded=1;" vertex="1" parent="1">
                    <mxGeometry x="1088.75" y="390" width="160" height="40" as="geometry"/>
                </mxCell>
                <mxCell id="qd1KYu5MEd3o7Prh5PEI-70" style="edgeStyle=none;rounded=0;orthogonalLoop=1;jettySize=auto;html=1;endArrow=none;endFill=0;exitX=0.5;exitY=0;exitDx=0;exitDy=0;entryX=0.5;entryY=1;entryDx=0;entryDy=0;" edge="1" parent="1" source="qd1KYu5MEd3o7Prh5PEI-68" target="qd1KYu5MEd3o7Prh5PEI-35">
                    <mxGeometry relative="1" as="geometry">
                        <mxPoint x="807" y="320" as="targetPoint"/>
                    </mxGeometry>
                </mxCell>
                <mxCell id="qd1KYu5MEd3o7Prh5PEI-68" value="" style="rhombus;whiteSpace=wrap;html=1;rounded=1;arcSize=0;" vertex="1" parent="1">
                    <mxGeometry x="787" y="370" width="40" height="40" as="geometry"/>
                </mxCell>
                <mxCell id="qd1KYu5MEd3o7Prh5PEI-76" value="estado_finca" style="ellipse;whiteSpace=wrap;html=1;rounded=1;" vertex="1" parent="1">
                    <mxGeometry x="1098.75" y="440" width="160" height="40" as="geometry"/>
                </mxCell>
                <mxCell id="qd1KYu5MEd3o7Prh5PEI-80" value="estado_propietario" style="ellipse;whiteSpace=wrap;html=1;rounded=1;" vertex="1" parent="1">
                    <mxGeometry x="1148.75" y="740" width="110" height="40" as="geometry"/>
                </mxCell>
                <mxCell id="qd1KYu5MEd3o7Prh5PEI-87" value="" style="edgeStyle=none;rounded=0;orthogonalLoop=1;jettySize=auto;html=1;endArrow=none;endFill=0;" edge="1" parent="1" source="qd1KYu5MEd3o7Prh5PEI-85" target="qd1KYu5MEd3o7Prh5PEI-86">
                    <mxGeometry relative="1" as="geometry"/>
                </mxCell>
                <mxCell id="qd1KYu5MEd3o7Prh5PEI-89" value="" style="edgeStyle=none;rounded=0;orthogonalLoop=1;jettySize=auto;html=1;endArrow=none;endFill=0;" edge="1" parent="1" source="qd1KYu5MEd3o7Prh5PEI-85" target="qd1KYu5MEd3o7Prh5PEI-86">
                    <mxGeometry relative="1" as="geometry"/>
                </mxCell>
                <mxCell id="qd1KYu5MEd3o7Prh5PEI-91" value="" style="edgeStyle=none;rounded=0;orthogonalLoop=1;jettySize=auto;html=1;endArrow=none;endFill=0;" edge="1" parent="1" source="qd1KYu5MEd3o7Prh5PEI-85" target="qd1KYu5MEd3o7Prh5PEI-90">
                    <mxGeometry relative="1" as="geometry"/>
                </mxCell>
                <mxCell id="qd1KYu5MEd3o7Prh5PEI-96" style="edgeStyle=none;rounded=0;orthogonalLoop=1;jettySize=auto;html=1;entryX=1;entryY=0.5;entryDx=0;entryDy=0;endArrow=none;endFill=0;" edge="1" parent="1" source="qd1KYu5MEd3o7Prh5PEI-85" target="qd1KYu5MEd3o7Prh5PEI-94">
                    <mxGeometry relative="1" as="geometry"/>
                </mxCell>
                <mxCell id="qd1KYu5MEd3o7Prh5PEI-85" value="Lugar" style="rounded=1;whiteSpace=wrap;html=1;" vertex="1" parent="1">
                    <mxGeometry x="1181" y="590" width="120" height="60" as="geometry"/>
                </mxCell>
                <mxCell id="qd1KYu5MEd3o7Prh5PEI-86" value="&lt;u&gt;id_lugar&lt;/u&gt;" style="ellipse;whiteSpace=wrap;html=1;rounded=1;" vertex="1" parent="1">
                    <mxGeometry x="1350" y="540" width="120" height="40" as="geometry"/>
                </mxCell>
                <mxCell id="qd1KYu5MEd3o7Prh5PEI-90" value="nombre_lugar" style="ellipse;whiteSpace=wrap;html=1;rounded=1;" vertex="1" parent="1">
                    <mxGeometry x="1360" y="590" width="120" height="40" as="geometry"/>
                </mxCell>
                <mxCell id="qd1KYu5MEd3o7Prh5PEI-94" value="Pertenece" style="rhombus;whiteSpace=wrap;html=1;rounded=1;arcSize=0;" vertex="1" parent="1">
                    <mxGeometry x="1032.5" y="540" width="77.5" height="80" as="geometry"/>
                </mxCell>
                <mxCell id="qd1KYu5MEd3o7Prh5PEI-98" style="edgeStyle=none;rounded=0;orthogonalLoop=1;jettySize=auto;html=1;endArrow=none;endFill=0;" edge="1" parent="1" source="qd1KYu5MEd3o7Prh5PEI-97" target="qd1KYu5MEd3o7Prh5PEI-35">
                    <mxGeometry relative="1" as="geometry"/>
                </mxCell>
                <mxCell id="qd1KYu5MEd3o7Prh5PEI-97" value="estado_cultivo" style="ellipse;whiteSpace=wrap;html=1;rounded=1;" vertex="1" parent="1">
                    <mxGeometry x="580" y="90" width="120" height="30" as="geometry"/>
                </mxCell>
                <mxCell id="qd1KYu5MEd3o7Prh5PEI-99" value="U-F" style="rhombus;whiteSpace=wrap;html=1;rounded=1;arcSize=0;" vertex="1" parent="1">
                    <mxGeometry x="600" y="470" width="80" height="80" as="geometry"/>
                </mxCell>
                <mxCell id="qd1KYu5MEd3o7Prh5PEI-104" value="fecha_update_finca" style="ellipse;whiteSpace=wrap;html=1;rounded=1;" vertex="1" parent="1">
                    <mxGeometry x="1123.75" y="490" width="160" height="40" as="geometry"/>
                </mxCell>
                <mxCell id="10" value="" style="rhombus;whiteSpace=wrap;html=1;" vertex="1" parent="1">
                    <mxGeometry x="707" y="595" width="53" height="55" as="geometry"/>
                </mxCell>
                <mxCell id="11" value="" style="endArrow=none;html=1;entryX=0;entryY=1;entryDx=0;entryDy=0;exitX=0.5;exitY=0;exitDx=0;exitDy=0;" edge="1" parent="1" source="10" target="qd1KYu5MEd3o7Prh5PEI-43">
                    <mxGeometry width="50" height="50" relative="1" as="geometry">
                        <mxPoint x="650" y="510" as="sourcePoint"/>
                        <mxPoint x="700" y="460" as="targetPoint"/>
                    </mxGeometry>
                </mxCell>
                <mxCell id="12" value="Monitoreo" style="rounded=1;whiteSpace=wrap;html=1;" vertex="1" parent="1">
                    <mxGeometry x="587" y="710" width="113" height="50" as="geometry"/>
                </mxCell>
                <mxCell id="13" value="" style="endArrow=none;html=1;entryX=0.5;entryY=1;entryDx=0;entryDy=0;exitX=0.5;exitY=0;exitDx=0;exitDy=0;" edge="1" parent="1" source="12" target="10">
                    <mxGeometry width="50" height="50" relative="1" as="geometry">
                        <mxPoint x="650" y="510" as="sourcePoint"/>
                        <mxPoint x="700" y="460" as="targetPoint"/>
                    </mxGeometry>
                </mxCell>
                <mxCell id="15" value="arbol" style="ellipse;whiteSpace=wrap;html=1;" vertex="1" parent="1">
                    <mxGeometry x="485" y="850" width="80" height="40" as="geometry"/>
                </mxCell>
                <mxCell id="16" value="fruto" style="ellipse;whiteSpace=wrap;html=1;" vertex="1" parent="1">
                    <mxGeometry x="565" y="850" width="70" height="40" as="geometry"/>
                </mxCell>
                <mxCell id="17" value="incidencia" style="ellipse;whiteSpace=wrap;html=1;" vertex="1" parent="1">
                    <mxGeometry x="640" y="850" width="80" height="40" as="geometry"/>
                </mxCell>
                <mxCell id="18" value="severidad" style="ellipse;whiteSpace=wrap;html=1;" vertex="1" parent="1">
                    <mxGeometry x="720" y="850" width="73" height="40" as="geometry"/>
                </mxCell>
                <mxCell id="19" value="" style="endArrow=none;html=1;entryX=0.5;entryY=0;entryDx=0;entryDy=0;exitX=0;exitY=1;exitDx=0;exitDy=0;" edge="1" parent="1" source="12" target="15">
                    <mxGeometry width="50" height="50" relative="1" as="geometry">
                        <mxPoint x="650" y="710" as="sourcePoint"/>
                        <mxPoint x="700" y="660" as="targetPoint"/>
                    </mxGeometry>
                </mxCell>
                <mxCell id="20" value="" style="endArrow=none;html=1;entryX=0.5;entryY=0;entryDx=0;entryDy=0;exitX=0.25;exitY=1;exitDx=0;exitDy=0;" edge="1" parent="1" source="12" target="16">
                    <mxGeometry width="50" height="50" relative="1" as="geometry">
                        <mxPoint x="650" y="710" as="sourcePoint"/>
                        <mxPoint x="700" y="660" as="targetPoint"/>
                    </mxGeometry>
                </mxCell>
                <mxCell id="21" value="" style="endArrow=none;html=1;entryX=0.5;entryY=0;entryDx=0;entryDy=0;" edge="1" parent="1" target="17">
                    <mxGeometry width="50" height="50" relative="1" as="geometry">
                        <mxPoint x="650" y="760" as="sourcePoint"/>
                        <mxPoint x="700" y="660" as="targetPoint"/>
                    </mxGeometry>
                </mxCell>
                <mxCell id="22" value="" style="endArrow=none;html=1;entryX=0.5;entryY=0;entryDx=0;entryDy=0;exitX=0.75;exitY=1;exitDx=0;exitDy=0;" edge="1" parent="1" source="12" target="18">
                    <mxGeometry width="50" height="50" relative="1" as="geometry">
                        <mxPoint x="650" y="710" as="sourcePoint"/>
                        <mxPoint x="700" y="660" as="targetPoint"/>
                    </mxGeometry>
                </mxCell>
                <mxCell id="23" value="" style="endArrow=none;html=1;" edge="1" parent="1">
                    <mxGeometry width="50" height="50" relative="1" as="geometry">
                        <mxPoint x="580" y="750" as="sourcePoint"/>
                        <mxPoint x="440" y="830" as="targetPoint"/>
                    </mxGeometry>
                </mxCell>
                <mxCell id="24" value="id_monitoreo" style="ellipse;whiteSpace=wrap;html=1;" vertex="1" parent="1">
                    <mxGeometry x="390" y="830" width="80" height="50" as="geometry"/>
                </mxCell>
            </root>
        </mxGraphModel>
    </diagram>
</mxfile>